# Blender v2.72 (sub 0) OBJ File: 'cubeman.blend'
# www.blender.org
mtllib cubeman.mtl
o Cube
v 0.791782 5.867728 -0.791782
v 0.791782 5.867728 0.791782
v -0.791782 5.867728 0.791781
v -0.791781 5.867728 -0.791782
v 0.791782 7.451292 -0.791781
v 0.791781 7.451292 0.791782
v -0.791782 7.451292 0.791781
v -0.791782 7.451292 -0.791782
v 0.334709 5.811633 -0.334709
v 0.334709 5.811633 0.334709
v -0.334709 5.811633 0.334709
v -0.334709 5.811633 -0.334710
v 0.334709 5.239278 -0.334709
v 0.334709 5.239278 0.334709
v -0.334709 5.239278 0.334709
v -0.334709 5.239278 -0.334710
v 2.111094 5.175387 -0.334709
v 2.111094 5.175387 0.334709
v -2.111095 5.175387 0.334709
v -2.111094 5.175387 -0.334710
v 2.111094 4.804493 -0.334709
v 2.111094 4.804493 0.334709
v -2.111095 4.804493 0.334709
v -2.111094 4.804493 -0.334710
v 0.703698 4.804493 -0.334709
v -0.703698 4.804493 -0.334709
v 0.703698 4.804493 0.334709
v -0.703698 4.804493 0.334709
v 2.111094 4.670479 -0.334709
v 2.111094 4.670479 0.334709
v -2.111095 4.670479 0.334709
v -2.111094 4.670479 -0.334710
v 1.376503 4.670479 -0.334709
v -1.376503 4.670479 -0.334709
v 1.376504 4.670479 0.334709
v -1.376504 4.670479 0.334709
v 2.111094 1.934843 -0.334709
v 2.111094 1.934843 0.334709
v -2.111094 1.934843 0.334709
v -2.111094 1.934843 -0.334709
v 1.376503 1.934843 -0.334709
v -1.376503 1.934843 -0.334709
v 1.376504 1.934843 0.334709
v -1.376504 1.934843 0.334709
v 0.703698 2.135463 -0.334709
v -0.703698 2.135463 -0.334709
v 0.703698 2.135463 0.334709
v -0.703698 2.135463 0.334709
v 0.000000 2.135463 -0.334709
v -0.000000 2.135463 0.334709
v 0.772456 0.041996 -0.334709
v 0.772456 0.041996 0.334709
v 0.068758 0.041996 0.334709
v 0.068758 0.041996 -0.334709
v -0.114349 0.041996 -0.334709
v -0.114350 0.041996 0.334709
v -0.818048 0.041996 0.334709
v -0.818047 0.041996 -0.334709
vt 0.161865 0.762744
vt 0.000000 0.762744
vt 0.046720 0.715332
vt 0.115145 0.715332
vt 0.161865 0.927006
vt 0.000000 0.927006
vt 0.486794 0.763942
vt 0.486794 0.925807
vt 0.322532 0.925807
vt 0.322532 0.763942
vt 0.323731 0.762744
vt 0.323731 0.927006
vt 0.486794 0.599680
vt 0.486794 0.761545
vt 0.322532 0.761545
vt 0.322532 0.599680
vt 0.161865 0.598481
vt 0.323731 0.598481
vt 0.332205 0.996444
vt 0.332205 0.927006
vt 0.390708 0.927006
vt 0.390708 0.996444
vt 0.115145 0.645893
vt 0.000000 0.598481
vt 0.046720 0.645893
vt 0.589449 0.999927
vt 0.521023 0.999927
vt 0.521023 0.815664
vt 0.589449 0.815664
vt 0.250000 0.598481
vt 0.181575 0.598481
vt 0.181575 0.539111
vt 0.250000 0.539111
vt 0.681575 0.598481
vt 0.613150 0.598481
vt 0.613150 0.539111
vt 0.681575 0.539111
vt 0.273701 0.996444
vt 0.273701 0.927006
vt 0.726299 0.598481
vt 0.794724 0.598481
vt 0.794724 0.636954
vt 0.726299 0.636954
vt 0.000000 0.532484
vt 0.431575 0.532484
vt 0.863150 0.532484
vt 1.000000 0.401400
vt 0.931575 0.401400
vt 0.931575 0.217136
vt 1.000000 0.217136
vt 0.273701 0.996796
vt 0.205276 0.996796
vt 0.205276 0.927006
vt -0.000000 0.494011
vt 0.143858 0.494011
vt 0.287717 0.494011
vt 0.431575 0.494011
vt 0.575433 0.494011
vt 0.719291 0.494011
vt 0.863150 0.494011
vt 0.863150 0.934620
vt 0.794724 0.934620
vt 0.794724 0.896148
vt 0.863150 0.896148
vt 0.863150 0.000000
vt 0.931575 0.000000
vt 0.931575 0.276856
vt 0.863150 0.276856
vt 0.136851 0.996796
vt 0.136850 0.927006
vt 0.726299 0.882247
vt 0.657874 0.882247
vt 0.657874 0.598481
vt 0.589449 0.882247
vt 0.589449 0.598481
vt 0.794724 0.650855
vt 0.726299 0.650855
vt 0.356488 0.480110
vt 0.431575 0.480110
vt 0.506662 0.480110
vt 0.794724 0.882247
vt 0.863150 0.882247
vt -0.000000 0.480110
vt 0.075087 0.480110
vt 0.788063 0.480110
vt 0.863150 0.480110
vt 0.726299 0.958445
vt 0.657874 0.958445
vt 0.589449 0.958445
vt 0.726299 0.934620
vt 0.356488 0.196344
vt 0.431575 0.196344
vt 0.506662 0.196344
vt 0.863150 0.598481
vt 0.000000 0.196344
vt 0.075087 0.196344
vt 0.788063 0.196344
vt 0.863150 0.196344
vt 0.931575 0.988031
vt 0.863150 0.988031
vt 0.863150 0.711175
vt 0.931575 0.711175
vt 0.143858 0.217154
vt 0.215787 0.217154
vt 0.287717 0.217154
vt 0.575433 0.217154
vt 0.647362 0.217154
vt 0.719291 0.217154
vt 0.136850 1.000000
vt 0.068425 1.000000
vt 0.068425 0.927006
vt 0.931575 0.494038
vt 0.222816 0.000000
vt 0.294745 0.000000
vt 1.000000 0.000000
vt 0.568405 0.000000
vt 0.640334 0.000000
vt 0.000000 1.000000
vt 0.521023 0.598481
vt 0.132170 0.000000
vt 0.204099 0.000000
vt 0.659050 0.000000
vt 0.730980 0.000000
vn -0.121800 -0.992600 -0.000000
vn 0.000000 1.000000 0.000000
vn 1.000000 -0.000000 0.000000
vn -0.000000 -0.000000 1.000000
vn -1.000000 -0.000000 -0.000000
vn 0.000000 0.000000 -1.000000
vn -0.000000 -0.992600 0.121800
vn 0.000000 -0.992600 -0.121800
vn 0.121800 -0.992600 0.000000
vn -0.035900 0.999400 0.000000
vn 0.035900 0.999400 0.000000
vn -0.195300 -0.980700 0.000000
vn 0.195300 -0.980700 0.000000
vn 0.000000 -1.000000 0.000000
vn 0.999500 0.032800 0.000000
vn -0.999500 -0.032800 -0.000000
vn 0.998500 -0.054500 0.000000
vn -0.998500 0.054500 -0.000000
usemtl Material.001
s off
f 3/1/1 4/2/1 12/3/1 11/4/1
f 5/1/2 8/5/2 7/6/2 6/2/2
f 1/7/3 5/8/3 6/9/3 2/10/3
f 2/11/4 6/12/4 7/5/4 3/1/4
f 3/13/5 7/14/5 8/15/5 4/16/5
f 5/1/6 1/17/6 4/18/6 8/11/6
f 11/19/5 12/20/5 16/21/5 15/22/5
f 2/17/7 3/1/7 11/4/7 10/23/7
f 4/2/8 1/24/8 9/25/8 12/3/8
f 1/24/9 2/17/9 10/23/9 9/25/9
f 15/26/10 16/27/10 20/28/10 19/29/10
f 10/30/4 11/31/4 15/32/4 14/33/4
f 12/34/6 9/35/6 13/36/6 16/37/6
f 9/38/3 10/39/3 14/20/3 13/19/3
f 19/40/5 20/41/5 24/42/5 23/43/5
f 14/33/4 15/32/4 19/44/4 18/45/4
f 16/37/6 13/36/6 17/45/6 20/46/6
f 13/47/11 14/48/11 18/49/11 17/50/11
f 27/51/12 25/52/12 33/53/12 35/39/12
f 18/45/4 19/44/4 23/54/4 28/55/4 27/56/4 22/57/4
f 20/46/6 17/45/6 21/57/6 25/58/6 26/59/6 24/60/6
f 17/61/3 18/62/3 22/63/3 21/64/3
f 28/65/5 26/66/5 46/67/5 48/68/5
f 26/52/13 28/69/13 36/70/13 34/53/13
f 35/71/5 33/72/5 41/73/5 43/40/5
f 34/72/3 36/74/3 44/75/3 42/73/3
f 23/43/5 24/42/5 32/76/5 31/77/5
f 22/57/4 27/56/4 35/78/4 30/79/4
f 25/58/6 21/57/6 29/79/6 33/80/6
f 21/64/3 22/63/3 30/81/3 29/82/3
f 28/55/4 23/54/4 31/83/4 36/84/4
f 24/60/6 26/59/6 34/85/6 32/86/6
f 37/72/14 38/71/14 43/87/14 41/88/14
f 42/74/14 44/72/14 39/88/14 40/89/14
f 31/77/5 32/76/5 40/62/5 39/90/5
f 30/79/4 35/78/4 43/91/4 38/92/4
f 33/80/6 29/79/6 37/92/6 41/93/6
f 29/82/3 30/81/3 38/41/3 37/94/3
f 36/84/4 31/83/4 39/95/4 44/96/4
f 32/86/6 34/85/6 42/97/6 40/98/6
f 25/99/3 27/100/3 47/101/3 45/102/3
f 27/56/4 28/55/4 48/103/4 50/104/4 47/105/4
f 26/59/6 25/58/6 45/106/6 49/107/6 46/108/6
f 51/109/14 52/110/14 53/111/14 54/70/14
f 47/101/15 52/60/15 51/112/15 45/102/15
f 50/104/4 53/113/4 52/114/4 47/105/4
f 49/49/16 54/66/16 53/115/16 50/50/16
f 45/106/6 51/116/6 54/117/6 49/107/6
f 55/110/14 56/118/14 57/6/14 58/111/14
f 50/28/17 56/119/17 55/75/17 49/29/17
f 48/103/4 57/120/4 56/121/4 50/104/4
f 46/67/18 58/112/18 57/60/18 48/68/18
f 49/107/6 55/122/6 58/123/6 46/108/6
